<svg xmlns="http://www.w3.org/2000/svg" viewBox="0 0 1000 1000" width="650" height="650"><title>React Js Training in Chandigarh-svg</title><style>		.s0 { fill: #f0f0f0 } 		.s1 { fill: #e6e6e6 } 		.s2 { fill: #e0e0e0 } 		.s3 { opacity: .5;fill: #fafafa } 		.s4 { opacity: .6;fill: #ffffff } 		.s5 { fill: #ebebeb } 		.s6 { fill: #f5f5f5 } 		.s7 { fill: #263238 } 		.s8 { opacity: .5;fill: #ffffff } 		.s9 { opacity: .7;fill: #ffffff } 		.s10 { opacity: .1;fill: #000000 } 		.s11 { fill: #ffffff } 		.s12 { fill: #014fa3 } 		.s13 { opacity: .9;fill: #ffffff } 		.s14 { opacity: .4;fill: #ffffff } 		.s15 { fill: none;stroke: #014fa3;stroke-linecap: round;stroke-linejoin: round;stroke-width: 2 } 		.s16 { fill: none;stroke: #014fa3;stroke-width: 2 } 		.s17 { opacity: .3;fill: #ffffff } 		.s18 { opacity: .2;fill: #ffffff } 		.s19 { opacity: .3;fill: #000000 } 		.s20 { opacity: .6;fill: #263238 } 		.s21 { opacity: .2;fill: #000000 } 		.s22 { opacity: .7;fill: #000000 } 		.s23 { fill: #b97964 } 		.s24 { fill: none;stroke: #014fa3;stroke-width: .5 } 		.s25 { fill: #a24e3f } 		.s26 { fill: none;stroke: #000000;stroke-linecap: round;stroke-linejoin: round;stroke-width: .4 } 		.s27 { fill: #000000 } 	</style><g id="Background complete"><path id="&lt;Compound Path&gt;" fill-rule="evenodd" class="s0" d="m600 196.6l17.1-17.2 9.7 8c7-4.5 14.6-7.6 22.5-9.2l1.1-12.6h24.3l1.2 12.6c7.9 1.6 15.5 4.7 22.4 9.2l9.7-8 17.2 17.2-8 9.7c4.5 6.9 7.6 14.5 9.2 22.4l12.6 1.2v24.3l-12.6 1.1c-1.6 7.9-4.7 15.5-9.2 22.5l8 9.7-17.2 17.1-9.7-8c-6.9 4.6-14.5 7.7-22.4 9.3l-1.2 12.5h-24.3l-1.1-12.5c-7.9-1.6-15.5-4.7-22.5-9.3l-9.7 8-17.1-17.1 8-9.7c-4.6-7-7.6-14.6-9.3-22.5l-12.5-1.1v-24.3l12.5-1.2c1.7-7.9 4.7-15.5 9.3-22.4zm34.7 17.5c-15.4 15.4-15.4 40.4 0 55.8 15.4 15.4 40.4 15.4 55.8 0 15.4-15.4 15.4-40.4 0-55.8-15.4-15.4-40.4-15.4-55.8 0z"></path><g id="&lt;Group&gt;"><g id="&lt;Group&gt;"><path id="&lt;Path&gt;" class="s1" d="m539.8 219.4h-171.5c-5.4 0-9.8-4.4-9.8-9.9v-131.2c0-5.4 4.4-9.8 9.8-9.8h171.5c5.4 0 9.8 4.4 9.8 9.8v131.2c0 5.5-4.4 9.9-9.8 9.9z"></path><path id="&lt;Path&gt;" class="s2" d="m549.6 94.8h-191.1v-17.1c0-5.1 4.1-9.2 9.2-9.2h172.8c5.1 0 9.1 4 9.1 9.1z"></path></g><g id="&lt;Group&gt;"><path id="&lt;Path&gt;" class="s3" d="m539.5 83.5c0 3.2-2.6 5.8-5.7 5.8-3.2 0-5.8-2.6-5.8-5.8 0-3.1 2.6-5.7 5.8-5.7 3.1 0 5.7 2.6 5.7 5.7z"></path><path id="&lt;Path&gt;" class="s3" d="m523.2 83.5c0 3.2-2.6 5.8-5.8 5.8-3.1 0-5.7-2.6-5.7-5.8 0-3.1 2.6-5.7 5.7-5.7 3.2 0 5.8 2.6 5.8 5.7z"></path><path id="&lt;Path&gt;" class="s3" d="m506.8 83.5c0 3.2-2.5 5.8-5.7 5.8-3.2 0-5.7-2.6-5.7-5.8 0-3.1 2.5-5.7 5.7-5.7 3.2 0 5.7 2.6 5.7 5.7z"></path></g><path id="&lt;Path&gt;" class="s4" d="m504.6 122.1h-102.2v-5.3h102.2z"></path><path id="&lt;Path&gt;" class="s2" d="m477.1 133.7h-73.2v-5.3h73.2z"></path><path id="&lt;Path&gt;" class="s0" d="m532.4 122.1h-18.7v-5.3h18.7z"></path><path id="&lt;Path&gt;" class="s0" d="m395.3 122.1h-20.2v-5.3h20.2z"></path><path id="&lt;Path&gt;" class="s0" d="m504.6 146.6h-102.2v-5.4h102.2z"></path><path id="&lt;Path&gt;" class="s4" d="m532.4 146.6h-18.7v-5.4h18.7z"></path><path id="&lt;Path&gt;" class="s0" d="m395.3 146.6h-20.2v-5.4h20.2z"></path><path id="&lt;Path&gt;" class="s4" d="m504.6 197.6h-102.2v-5.4h102.2z"></path><path id="&lt;Path&gt;" class="s4" d="m532.4 197.6h-18.7v-5.4h18.7z"></path><path id="&lt;Path&gt;" class="s0" d="m504.6 159.5h-102.2v-5.4h102.2z"></path><path id="&lt;Path&gt;" class="s2" d="m532.4 159.5h-18.7v-5.4h18.7z"></path><path id="&lt;Path&gt;" class="s2" d="m395.3 159.5h-20.2v-5.4h20.2z"></path><path id="&lt;Path&gt;" class="s0" d="m533.8 133.9h-48.7v-5.3h48.7z"></path><path id="&lt;Path&gt;" class="s4" d="m475.5 170.7h-73.1v-5.3h73.1z"></path><path id="&lt;Path&gt;" class="s0" d="m532.2 171h-48.7v-5.4h48.7z"></path><path id="&lt;Path&gt;" class="s2" d="m438.9 182.4h-36.5v-5.4h36.5z"></path></g><g id="&lt;Group&gt;"><g id="&lt;Group&gt;"><path id="&lt;Compound Path&gt;" class="s2" d="m800.6 174.5l-21.7 10.1 21.7 10.2v8.1l-28.9-14v-8.5l28.9-14z"></path><path id="&lt;Compound Path&gt;" class="s2" d="m866.5 180.4v8.5l-28.9 14v-8.1l21.6-10.2-21.6-10.1v-8.1z"></path></g><g id="&lt;Group&gt;"><path id="&lt;Path&gt;" class="s2" d="m824.2 160.7l-14.2 48.8h7.1l14.1-48.8z"></path></g></g><path id="&lt;Compound Path&gt;" fill-rule="evenodd" class="s2" d="m70 430l10.1-10 5.6 4.7c4.1-2.7 8.5-4.5 13.1-5.4l0.7-7.3h14.2l0.7 7.3c4.6 0.9 9 2.7 13.1 5.4l5.6-4.7 10.1 10-4.7 5.7c2.7 4 4.4 8.5 5.4 13.1l7.3 0.7v14.2l-7.3 0.7c-1 4.6-2.7 9-5.4 13.1l4.7 5.6-10.1 10-5.6-4.6c-4.1 2.6-8.5 4.4-13.1 5.4l-0.7 7.3h-14.2l-0.7-7.3c-4.6-1-9-2.8-13.1-5.4l-5.6 4.6-10.1-10 4.7-5.6c-2.7-4.1-4.4-8.5-5.4-13.1l-7.3-0.7v-14.2l7.3-0.7c1-4.6 2.7-9.1 5.4-13.1zm20.3 10.2c-9 9-9 23.6 0 32.6 9 9 23.6 9 32.6 0 8.9-9 8.9-23.6 0-32.6-9-8.9-23.6-8.9-32.6 0z"></path><path id="&lt;Compound Path&gt;" fill-rule="evenodd" class="s2" d="m874.3 265.9l8.4-8.3 4.7 3.9c3.3-2.2 7-3.7 10.8-4.5l0.6-6.1h11.8l0.6 6.1c3.8 0.8 7.5 2.3 10.8 4.5l4.7-3.9 8.4 8.3-3.9 4.7c2.2 3.4 3.7 7.1 4.5 10.9l6 0.6v11.8l-6 0.5c-0.8 3.9-2.3 7.6-4.5 10.9l3.9 4.7-8.4 8.3-4.7-3.8c-3.3 2.2-7 3.7-10.8 4.4l-0.6 6.1h-11.8l-0.6-6.1c-3.8-0.7-7.5-2.2-10.8-4.4l-4.7 3.8-8.4-8.3 3.9-4.7c-2.2-3.3-3.7-7-4.5-10.9l-6.1-0.5v-11.8l6.1-0.6c0.8-3.8 2.3-7.5 4.5-10.9zm16.9 8.6c-7.5 7.4-7.5 19.5 0 27 7.4 7.4 19.5 7.4 27 0 7.5-7.5 7.5-19.6 0-27-7.5-7.5-19.6-7.5-27 0z"></path><g id="&lt;Group&gt;"><path id="&lt;Path&gt;" class="s5" d="m871.5 852.9h69.7v0.6h-69.7z"></path><path id="&lt;Path&gt;" class="s5" d="m673.2 858.7h18.3v0.5h-18.3z"></path><path id="&lt;Path&gt;" class="s5" d="m829 833.4h40.4v0.5h-40.4z"></path><path id="&lt;Path&gt;" class="s5" d="m104.9 836.9h90.9v0.6h-90.9z"></path><path id="&lt;Path&gt;" class="s5" d="m214.5 836.9h13.4v0.6h-13.4z"></path><path id="&lt;Path&gt;" class="s5" d="m271.2 845.8h197.1v0.5h-197.1z"></path></g><g id="&lt;Group&gt;"><g id="&lt;Group&gt;"><g id="&lt;Group&gt;"><g id="&lt;Group&gt;"><path id="&lt;Compound Path&gt;" fill-rule="evenodd" class="s2" d="m887.8 698.3h-361.5c-6.4 0-11.7-5.3-11.7-11.7v-526.6c0-6.4 5.3-11.7 11.7-11.7h361.5c6.5 0 11.8 5.3 11.8 11.7v526.6c0 6.4-5.3 11.7-11.8 11.7zm-361.5-549.5c-6.1 0-11.2 5-11.2 11.2v526.6c0 6.2 5.1 11.2 11.2 11.2h361.5c6.2 0 11.3-5 11.3-11.2v-526.6c0-6.2-5.1-11.2-11.3-11.2z"></path></g></g><g id="&lt;Group&gt;"><g id="&lt;Group&gt;"><path id="&lt;Compound Path&gt;" fill-rule="evenodd" class="s2" d="m471 698.3h-361.5c-6.5 0-11.7-5.3-11.7-11.7v-526.6c0-6.4 5.2-11.7 11.7-11.7h361.5c6.5 0 11.7 5.3 11.7 11.7v526.6c0 6.4-5.2 11.7-11.7 11.7zm-361.5-549.5c-6.2 0-11.2 5-11.2 11.2v526.6c0 6.2 5 11.2 11.2 11.2h361.5c6.2 0 11.2-5 11.2-11.2v-526.6c0-6.2-5-11.2-11.2-11.2z"></path></g></g></g><g id="&lt;Group&gt;"><g id="&lt;Group&gt;"><path id="&lt;Path&gt;" class="s2" d="m1000 820.9h-1000v-0.5h1000z"></path></g></g></g></g><g id="Shadow"><g id="&lt;Group&gt;"><g id="&lt;Group&gt;"><path id="&lt;Path&gt;" class="s6" d="m910.1 895c0 6.7-187 12.2-417.7 12.2-230.8 0-417.8-5.5-417.8-12.2 0-6.8 187-12.3 417.8-12.3 230.7 0 417.7 5.5 417.7 12.3z"></path></g></g></g><g id="Device"><g id="&lt;Group&gt;"><g id="&lt;Group&gt;"><g id="&lt;Group&gt;"><path id="&lt;Path&gt;" class="s7" d="m236.3 707.1h-50.9c-8 0-14.6-6.6-14.6-14.7v-432.2c0-10 8.2-18.2 18.2-18.2h47.3z"></path><path id="&lt;Path&gt;" class="s7" d="m431.2 699.1l-20.8 106.5h30.2l24.1-105.7z"></path><path id="&lt;Path&gt;" class="s7" d="m400.3 819.7h-15.2v-15.3h15.2z"></path><path id="&lt;Path&gt;" class="s8" d="m236.3 707.1h-50.9c-8 0-14.6-6.6-14.6-14.7v-432.2c0-10 8.2-18.2 18.2-18.2h47.3z"></path><path id="&lt;Path&gt;" class="s8" d="m431.2 699.1l-20.8 106.5h30.2l24.1-105.7z"></path><path id="&lt;Path&gt;" class="s8" d="m400.3 819.7h-15.2v-15.3h15.2z"></path></g><path id="&lt;Path&gt;" class="s7" d="m620.8 819.7h-193.9l27.6-161.6h129z"></path><path id="&lt;Path&gt;" class="s9" d="m620.8 819.7h-193.9l27.6-161.6h129z"></path><path id="&lt;Path&gt;" class="s10" d="m594.7 707.1h-148.7l-5.4 31.8 158.4-13.1z"></path><g id="&lt;Group&gt;"><g id="&lt;Group&gt;"><path id="&lt;Path&gt;" class="s7" d="m647.3 819.7h-251.2v-15.3h251.2z"></path></g><g id="&lt;Group&gt;" style="opacity: .7"><path id="&lt;Path&gt;" class="s11" d="m647.3 819.7h-251.2v-15.3h251.2z"></path></g></g><g id="&lt;Group&gt;"><g id="&lt;Group&gt;"><g id="&lt;Group&gt;"><path id="&lt;Path&gt;" class="s7" d="m202.5 242h13.3 601.8 13.3c8.9 0 16.1 7.3 16.1 16.4v432.3c0 9.1-7.2 16.4-16.1 16.4h-13.3-601.8-13.3c-8.9 0-16.1-7.3-16.1-16.4v-432.3c0-9.1 7.2-16.4 16.1-16.4z"></path></g></g><g id="&lt;Group&gt;" style="opacity: .7"><g id="&lt;Group&gt;"><path id="&lt;Path&gt;" class="s11" d="m202.5 242h13.3 601.8 13.3c8.9 0 16.1 7.3 16.1 16.4v432.3c0 9.1-7.2 16.4-16.1 16.4h-13.3-601.8-13.3c-8.9 0-16.1-7.3-16.1-16.4v-432.3c0-9.1 7.2-16.4 16.1-16.4z"></path></g></g><g id="&lt;Group&gt;"><path id="&lt;Path&gt;" class="s12" d="m201.1 258v417h628.4v-417z"></path><path id="&lt;Path&gt;" class="s13" d="m201.1 258v417h628.4v-417z"></path><path id="&lt;Path&gt;" class="s12" d="m829.5 291.5h-628.4v-33.5h628.4z"></path><path id="&lt;Path&gt;" class="s8" d="m821.1 274.8c0 3.9-3.2 7.1-7.1 7.1-3.9 0-7.1-3.2-7.1-7.1 0-4 3.2-7.1 7.1-7.1 3.9 0 7.1 3.1 7.1 7.1z"></path><path id="&lt;Path&gt;" class="s8" d="m800.9 274.8c0 3.9-3.2 7.1-7.1 7.1-4 0-7.1-3.2-7.1-7.1 0-4 3.1-7.1 7.1-7.1 3.9 0 7.1 3.1 7.1 7.1z"></path><path id="&lt;Path&gt;" class="s8" d="m780.7 274.8c0 3.9-3.2 7.1-7.1 7.1-4 0-7.1-3.2-7.1-7.1 0-4 3.1-7.1 7.1-7.1 3.9 0 7.1 3.1 7.1 7.1z"></path></g></g></g><g id="&lt;Group&gt;"><path id="&lt;Compound Path&gt;" fill-rule="evenodd" class="s12" d="m314 531.3l7.7-7.7 4.4 3.6c3.1-2.1 6.5-3.5 10.1-4.2l0.5-5.6h10.9l0.5 5.6c3.6 0.7 7 2.1 10.1 4.2l4.4-3.6 7.7 7.7-3.6 4.3c2.1 3.2 3.4 6.6 4.2 10.1l5.6 0.6v10.9l-5.6 0.5c-0.8 3.6-2.1 7-4.2 10.1l3.6 4.4-7.7 7.7-4.4-3.6c-3.1 2-6.5 3.4-10.1 4.1l-0.5 5.7h-10.9l-0.5-5.7c-3.6-0.7-7-2.1-10.1-4.1l-4.4 3.6-7.7-7.7 3.6-4.4c-2-3.1-3.4-6.6-4.2-10.1l-5.6-0.5v-10.9l5.6-0.6c0.8-3.5 2.2-6.9 4.2-10.1zm18.1 10.4c-5.5 5.6-5.5 14.6 0 20.1 5.6 5.6 14.6 5.6 20.1 0 5.5-5.5 5.5-14.5 0-20.1-5.5-5.5-14.5-5.5-20.1 0z"></path><path id="&lt;Compound Path&gt;" fill-rule="evenodd" class="s14" d="m314 531.3l7.7-7.7 4.4 3.6c3.1-2.1 6.5-3.5 10.1-4.2l0.5-5.6h10.9l0.5 5.6c3.6 0.7 7 2.1 10.1 4.2l4.4-3.6 7.7 7.7-3.6 4.3c2.1 3.2 3.4 6.6 4.2 10.1l5.6 0.6v10.9l-5.6 0.5c-0.8 3.6-2.1 7-4.2 10.1l3.6 4.4-7.7 7.7-4.4-3.6c-3.1 2-6.5 3.4-10.1 4.1l-0.5 5.7h-10.9l-0.5-5.7c-3.6-0.7-7-2.1-10.1-4.1l-4.4 3.6-7.7-7.7 3.6-4.4c-2-3.1-3.4-6.6-4.2-10.1l-5.6-0.5v-10.9l5.6-0.6c0.8-3.5 2.2-6.9 4.2-10.1zm18.1 10.4c-5.5 5.6-5.5 14.6 0 20.1 5.6 5.6 14.6 5.6 20.1 0 5.5-5.5 5.5-14.5 0-20.1-5.5-5.5-14.5-5.5-20.1 0z"></path></g><g id="&lt;Group&gt;"><path id="&lt;Compound Path&gt;" fill-rule="evenodd" class="s12" d="m636.5 398l7.2-7.1 4 3.3c2.9-1.9 6.1-3.2 9.3-3.8l0.5-5.3h10.1l0.5 5.3c3.3 0.6 6.5 1.9 9.4 3.8l4-3.3 7.2 7.1-3.4 4.1q2.9 4.4 3.9 9.3l5.2 0.5v10.1l-5.2 0.5c-0.7 3.3-2 6.5-3.9 9.4l3.4 4-7.2 7.1-4-3.3c-2.9 1.9-6.1 3.2-9.4 3.9l-0.5 5.2h-10.1l-0.5-5.2c-3.2-0.7-6.4-2-9.3-3.9l-4 3.3-7.2-7.1 3.3-4c-1.9-2.9-3.1-6.1-3.8-9.4l-5.2-0.5v-10.1l5.2-0.5c0.7-3.3 1.9-6.4 3.8-9.3zm16.8 9.6c-5.1 5.1-5.1 13.5 0 18.6 5.1 5.1 13.5 5.1 18.6 0 5.2-5.1 5.2-13.5 0-18.6-5.1-5.2-13.5-5.2-18.6 0z"></path><path id="&lt;Compound Path&gt;" fill-rule="evenodd" class="s14" d="m636.5 398l7.2-7.1 4 3.3c2.9-1.9 6.1-3.2 9.3-3.8l0.5-5.3h10.1l0.5 5.3c3.3 0.6 6.5 1.9 9.4 3.8l4-3.3 7.2 7.1-3.4 4.1q2.9 4.4 3.9 9.3l5.2 0.5v10.1l-5.2 0.5c-0.7 3.3-2 6.5-3.9 9.4l3.4 4-7.2 7.1-4-3.3c-2.9 1.9-6.1 3.2-9.4 3.9l-0.5 5.2h-10.1l-0.5-5.2c-3.2-0.7-6.4-2-9.3-3.9l-4 3.3-7.2-7.1 3.3-4c-1.9-2.9-3.1-6.1-3.8-9.4l-5.2-0.5v-10.1l5.2-0.5c0.7-3.3 1.9-6.4 3.8-9.3zm16.8 9.6c-5.1 5.1-5.1 13.5 0 18.6 5.1 5.1 13.5 5.1 18.6 0 5.2-5.1 5.2-13.5 0-18.6-5.1-5.2-13.5-5.2-18.6 0z"></path></g><g id="&lt;Group&gt;"><path id="&lt;Compound Path&gt;" fill-rule="evenodd" class="s12" d="m625.2 343.5l4.6-4.6 2.6 2.1c1.9-1.2 3.9-2 6-2.5l0.4-3.3h6.5l0.3 3.3c2.1 0.5 4.2 1.3 6 2.5l2.6-2.1 4.7 4.6-2.2 2.6c1.2 1.9 2.1 3.9 2.5 6l3.4 0.4v6.5l-3.4 0.3c-0.4 2.1-1.3 4.2-2.5 6.1l2.2 2.6-4.7 4.6-2.6-2.2c-1.8 1.3-3.9 2.1-6 2.5l-0.3 3.4h-6.5l-0.4-3.4c-2.1-0.4-4.1-1.2-6-2.5l-2.6 2.2-4.6-4.6 2.1-2.6c-1.2-1.9-2-4-2.5-6.1l-3.3-0.3v-6.5l3.3-0.3c0.5-2.2 1.3-4.2 2.5-6.1zm10.9 6.2c-3.4 3.3-3.4 8.7 0 12 3.3 3.4 8.7 3.4 12 0 3.3-3.3 3.3-8.7 0-12-3.3-3.3-8.7-3.3-12 0z"></path><path id="&lt;Compound Path&gt;" fill-rule="evenodd" class="s9" d="m625.2 343.5l4.6-4.6 2.6 2.1c1.9-1.2 3.9-2 6-2.5l0.4-3.3h6.5l0.3 3.3c2.1 0.5 4.2 1.3 6 2.5l2.6-2.1 4.7 4.6-2.2 2.6c1.2 1.9 2.1 3.9 2.5 6l3.4 0.4v6.5l-3.4 0.3c-0.4 2.1-1.3 4.2-2.5 6.1l2.2 2.6-4.7 4.6-2.6-2.2c-1.8 1.3-3.9 2.1-6 2.5l-0.3 3.4h-6.5l-0.4-3.4c-2.1-0.4-4.1-1.2-6-2.5l-2.6 2.2-4.6-4.6 2.1-2.6c-1.2-1.9-2-4-2.5-6.1l-3.3-0.3v-6.5l3.3-0.3c0.5-2.2 1.3-4.2 2.5-6.1zm10.9 6.2c-3.4 3.3-3.4 8.7 0 12 3.3 3.4 8.7 3.4 12 0 3.3-3.3 3.3-8.7 0-12-3.3-3.3-8.7-3.3-12 0z"></path></g><g id="&lt;Group&gt;"><path id="&lt;Compound Path&gt;" fill-rule="evenodd" class="s12" d="m351.9 598.5l4.6-4.6 2.6 2.2c1.8-1.2 3.9-2.1 6-2.5l0.3-3.4h6.6l0.3 3.4c2.1 0.4 4.2 1.3 6 2.5l2.6-2.2 4.7 4.6-2.2 2.6c1.2 1.9 2.1 4 2.5 6.1l3.4 0.3v6.5l-3.4 0.4c-0.4 2.1-1.3 4.1-2.5 6l2.2 2.6-4.7 4.6-2.6-2.1c-1.8 1.2-3.9 2-6 2.5l-0.3 3.3h-6.6l-0.3-3.3c-2.1-0.5-4.2-1.3-6-2.5l-2.6 2.1-4.6-4.6 2.1-2.6c-1.2-1.9-2-3.9-2.5-6l-3.4-0.4v-6.5l3.4-0.3c0.5-2.1 1.3-4.2 2.5-6.1zm10.8 6.3c-3.3 3.3-3.3 8.7 0 12 3.4 3.3 8.7 3.3 12.1 0 3.3-3.3 3.3-8.7 0-12-3.4-3.4-8.7-3.4-12.1 0z"></path><path id="&lt;Compound Path&gt;" fill-rule="evenodd" class="s9" d="m351.9 598.5l4.6-4.6 2.6 2.2c1.8-1.2 3.9-2.1 6-2.5l0.3-3.4h6.6l0.3 3.4c2.1 0.4 4.2 1.3 6 2.5l2.6-2.2 4.7 4.6-2.2 2.6c1.2 1.9 2.1 4 2.5 6.1l3.4 0.3v6.5l-3.4 0.4c-0.4 2.1-1.3 4.1-2.5 6l2.2 2.6-4.7 4.6-2.6-2.1c-1.8 1.2-3.9 2-6 2.5l-0.3 3.3h-6.6l-0.3-3.3c-2.1-0.5-4.2-1.3-6-2.5l-2.6 2.1-4.6-4.6 2.1-2.6c-1.2-1.9-2-3.9-2.5-6l-3.4-0.4v-6.5l3.4-0.3c0.5-2.1 1.3-4.2 2.5-6.1zm10.8 6.3c-3.3 3.3-3.3 8.7 0 12 3.4 3.3 8.7 3.3 12.1 0 3.3-3.3 3.3-8.7 0-12-3.4-3.4-8.7-3.4-12.1 0z"></path></g><g id="&lt;Group&gt;"><g id="&lt;Group&gt;"><path id="&lt;Compound Path&gt;" fill-rule="evenodd" class="s12" d="m383.4 393.8l33.4-33.4 18.8 15.6c13.5-8.9 28.3-14.8 43.6-18l2.3-24.4h47.2l2.3 24.4c15.2 3.2 30.1 9.1 43.6 18l18.8-15.6 33.3 33.4-15.5 18.8c8.8 13.5 14.8 28.3 18 43.6l24.3 2.3v47.1l-24.3 2.3c-3.2 15.3-9.2 30.2-18 43.7l15.5 18.7-33.3 33.4-18.8-15.6c-13.5 8.9-28.4 14.9-43.6 18l-2.3 24.4h-47.2l-2.3-24.4c-15.3-3.1-30.1-9.1-43.6-18l-18.8 15.6-33.4-33.4 15.6-18.7c-8.9-13.5-14.8-28.4-18-43.7l-24.4-2.3v-47.1l24.4-2.3c3.2-15.3 9.1-30.1 18-43.6zm67.5 34.1c-29.9 29.9-29.9 78.4 0 108.3 29.9 29.9 78.4 29.9 108.3 0 29.9-29.9 29.9-78.4 0-108.3-29.9-29.9-78.4-29.9-108.3 0z"></path></g><g id="&lt;Group&gt;"><path id="&lt;Compound Path&gt;" fill-rule="evenodd" class="s12" d="m482.5 488.8h-17l-3.2 7.9h-8.7l16.3-36.7h8.4l16.4 36.7h-8.9zm-2.7-6.5l-5.8-14-5.8 14z"></path><path id="&lt;Compound Path&gt;" fill-rule="evenodd" class="s12" d="m522.8 461.6q3.6 1.7 5.5 4.6 2 3 2 7.1 0 4-2 7-1.9 3.1-5.5 4.7-3.6 1.6-8.5 1.5h-7.3v10.2h-8.5v-36.7h15.8q4.9 0 8.5 1.6zm-3.1 16.4q2-1.7 2-4.7 0-3.1-2-4.7-2-1.7-5.8-1.7h-6.9v12.7h6.9q3.8 0 5.8-1.6z"></path><path id="&lt;Compound Path&gt;" class="s12" d="m536.3 460h8.5v36.7h-8.5z"></path></g><g id="&lt;Group&gt;"><path id="&lt;Path&gt;" class="s12" d="m435.6 491.8c-0.5 0-1-0.4-1-0.9-2.1-20.9 3.9-40.9 17.1-56.4 0.4-0.4 1-0.5 1.4-0.1 0.5 0.4 0.5 1 0.1 1.4-12.8 15-18.7 34.5-16.6 54.9 0 0.5-0.4 1-0.9 1.1q-0.1 0-0.1 0z"></path></g><g id="&lt;Group&gt;"><path id="&lt;Path&gt;" class="s12" d="m439 507.6c-0.5 0-0.9-0.3-1-0.8-0.8-2.7-1.5-5.6-2-8.4-0.1-0.6 0.3-1.1 0.8-1.2 0.5-0.1 1.1 0.3 1.2 0.8 0.5 2.8 1.1 5.6 1.9 8.3 0.2 0.5-0.1 1.1-0.7 1.2q-0.1 0.1-0.2 0.1z"></path></g></g><path id="&lt;Path&gt;" class="s15" d="m256.7 377.6v100.1h85.5"></path><path id="&lt;Path&gt;" class="s12" d="m261.8 377.6c0 2.8-2.3 5.1-5.1 5.1-2.9 0-5.2-2.3-5.2-5.1 0-2.8 2.3-5.1 5.2-5.1 2.8 0 5.1 2.3 5.1 5.1z"></path><path id="&lt;Path&gt;" class="s12" d="m783.5 556.8c0 2.9-2.3 5.2-5.1 5.2-2.8 0-5.1-2.3-5.1-5.2 0-2.8 2.3-5.1 5.1-5.1 2.8 0 5.1 2.3 5.1 5.1z"></path><path id="&lt;Path&gt;" class="s16" d="m778.4 556.1v39.7h-125.2v-54.8h-18.8"></path></g></g><g id="Server"><g id="&lt;Group&gt;"><path id="&lt;Path&gt;" class="s12" d="m720 610.8h217.8v208.9h-217.8z"></path><path id="&lt;Path&gt;" class="s14" d="m720 610.8h217.8v208.9h-217.8z"></path><path id="&lt;Path&gt;" class="s14" d="m789.3 610.8h148.4v208.9h-148.4z"></path><path id="&lt;Path&gt;" class="s12" d="m796.7 621.5h133.6v25.8h-133.6z"></path><path id="&lt;Path&gt;" class="s12" d="m796.7 653.8h133.6v25.9h-133.6z"></path><path id="&lt;Path&gt;" class="s12" d="m796.7 686.1h133.6v25.9h-133.6z"></path><path id="&lt;Path&gt;" class="s12" d="m796.7 718.5h133.6v25.8h-133.6z"></path><path id="&lt;Path&gt;" class="s12" d="m796.7 750.8h133.6v25.9h-133.6z"></path><path id="&lt;Path&gt;" class="s12" d="m796.7 783.1h133.6v25.9h-133.6z"></path><path id="&lt;Path&gt;" class="s12" d="m727.8 621.5h53.7v25.8h-53.7z"></path><path id="&lt;Path&gt;" class="s12" d="m727.8 653.8h53.7v25.9h-53.7z"></path><path id="&lt;Path&gt;" class="s12" d="m727.8 686.1h53.7v25.9h-53.7z"></path><path id="&lt;Path&gt;" class="s12" d="m727.8 718.5h53.7v25.8h-53.7z"></path><path id="&lt;Path&gt;" class="s12" d="m727.8 750.8h53.7v25.9h-53.7z"></path><path id="&lt;Path&gt;" class="s12" d="m727.8 783.1h53.7v25.9h-53.7z"></path><path id="&lt;Path&gt;" class="s17" d="m920.7 624.8h3.1v19.2h-3.1z"></path><path id="&lt;Path&gt;" class="s17" d="m914.7 624.8h3.1v19.2h-3.1z"></path><path id="&lt;Path&gt;" class="s17" d="m908.7 624.8h3.1v19.2h-3.1z"></path><path id="&lt;Path&gt;" class="s17" d="m902.7 624.8h3.1v19.2h-3.1z"></path><path id="&lt;Path&gt;" class="s17" d="m896.7 624.8h3.1v19.2h-3.1z"></path><path id="&lt;Path&gt;" class="s17" d="m920.7 657.2h3.1v19.1h-3.1z"></path><path id="&lt;Path&gt;" class="s17" d="m914.7 657.2h3.1v19.1h-3.1z"></path><path id="&lt;Path&gt;" class="s17" d="m908.7 657.2h3.1v19.1h-3.1z"></path><path id="&lt;Path&gt;" class="s17" d="m902.7 657.2h3.1v19.1h-3.1z"></path><path id="&lt;Path&gt;" class="s17" d="m896.7 657.2h3.1v19.1h-3.1z"></path><path id="&lt;Path&gt;" class="s17" d="m920.7 689.5h3.1v19.1h-3.1z"></path><path id="&lt;Path&gt;" class="s17" d="m914.7 689.5h3.1v19.1h-3.1z"></path><path id="&lt;Path&gt;" class="s17" d="m908.7 689.5h3.1v19.1h-3.1z"></path><path id="&lt;Path&gt;" class="s17" d="m902.7 689.5h3.1v19.1h-3.1z"></path><path id="&lt;Path&gt;" class="s17" d="m896.7 689.5h3.1v19.1h-3.1z"></path><path id="&lt;Path&gt;" class="s17" d="m920.7 721.8h3.1v19.2h-3.1z"></path><path id="&lt;Path&gt;" class="s17" d="m914.7 721.8h3.1v19.2h-3.1z"></path><path id="&lt;Path&gt;" class="s17" d="m908.7 721.8h3.1v19.2h-3.1z"></path><path id="&lt;Path&gt;" class="s17" d="m902.7 721.8h3.1v19.2h-3.1z"></path><path id="&lt;Path&gt;" class="s17" d="m896.7 721.8h3.1v19.2h-3.1z"></path><path id="&lt;Path&gt;" class="s17" d="m920.7 754.2h3.1v19.1h-3.1z"></path><path id="&lt;Path&gt;" class="s17" d="m914.7 754.2h3.1v19.1h-3.1z"></path><path id="&lt;Path&gt;" class="s17" d="m908.7 754.2h3.1v19.1h-3.1z"></path><path id="&lt;Path&gt;" class="s17" d="m902.7 754.2h3.1v19.1h-3.1z"></path><path id="&lt;Path&gt;" class="s17" d="m896.7 754.2h3.1v19.1h-3.1z"></path><path id="&lt;Path&gt;" class="s17" d="m920.7 786.5h3.1v19.1h-3.1z"></path><path id="&lt;Path&gt;" class="s17" d="m914.7 786.5h3.1v19.1h-3.1z"></path><path id="&lt;Path&gt;" class="s17" d="m908.7 786.5h3.1v19.1h-3.1z"></path><path id="&lt;Path&gt;" class="s17" d="m902.7 786.5h3.1v19.1h-3.1z"></path><path id="&lt;Path&gt;" class="s17" d="m896.7 786.5h3.1v19.1h-3.1z"></path><path id="&lt;Path&gt;" class="s18" d="m812.3 634.4c0 1.7-1.5 3.2-3.2 3.2-1.8 0-3.2-1.5-3.2-3.2 0-1.8 1.4-3.2 3.2-3.2 1.7 0 3.2 1.4 3.2 3.2z"></path><path id="&lt;Path&gt;" class="s18" d="m832.3 634.4c0 1.7-1.5 3.2-3.2 3.2-1.8 0-3.2-1.5-3.2-3.2 0-1.8 1.4-3.2 3.2-3.2 1.7 0 3.2 1.4 3.2 3.2z"></path><path id="&lt;Path&gt;" class="s14" d="m852.3 634.4c0 1.7-1.5 3.2-3.2 3.2-1.8 0-3.2-1.5-3.2-3.2 0-1.8 1.4-3.2 3.2-3.2 1.7 0 3.2 1.4 3.2 3.2z"></path><path id="&lt;Path&gt;" class="s14" d="m812.3 666.7c0 1.8-1.5 3.2-3.2 3.2-1.8 0-3.2-1.4-3.2-3.2 0-1.7 1.4-3.2 3.2-3.2 1.7 0 3.2 1.5 3.2 3.2z"></path><path id="&lt;Path&gt;" class="s18" d="m832.3 666.7c0 1.8-1.5 3.2-3.2 3.2-1.8 0-3.2-1.4-3.2-3.2 0-1.7 1.4-3.2 3.2-3.2 1.7 0 3.2 1.5 3.2 3.2z"></path><path id="&lt;Path&gt;" class="s14" d="m852.3 666.7c0 1.8-1.5 3.2-3.2 3.2-1.8 0-3.2-1.4-3.2-3.2 0-1.7 1.4-3.2 3.2-3.2 1.7 0 3.2 1.5 3.2 3.2z"></path><path id="&lt;Path&gt;" class="s18" d="m812.3 699.1c0 1.7-1.5 3.1-3.2 3.1-1.8 0-3.2-1.4-3.2-3.1 0-1.8 1.4-3.2 3.2-3.2 1.7 0 3.2 1.4 3.2 3.2z"></path><path id="&lt;Path&gt;" class="s14" d="m832.3 699.1c0 1.7-1.5 3.1-3.2 3.1-1.8 0-3.2-1.4-3.2-3.1 0-1.8 1.4-3.2 3.2-3.2 1.7 0 3.2 1.4 3.2 3.2z"></path><path id="&lt;Path&gt;" class="s18" d="m852.3 699.1c0 1.7-1.5 3.1-3.2 3.1-1.8 0-3.2-1.4-3.2-3.1 0-1.8 1.4-3.2 3.2-3.2 1.7 0 3.2 1.4 3.2 3.2z"></path><path id="&lt;Path&gt;" class="s14" d="m812.3 731.4c0 1.7-1.5 3.2-3.2 3.2-1.8 0-3.2-1.5-3.2-3.2 0-1.8 1.4-3.2 3.2-3.2 1.7 0 3.2 1.4 3.2 3.2z"></path><path id="&lt;Path&gt;" class="s18" d="m832.3 731.4c0 1.7-1.5 3.2-3.2 3.2-1.8 0-3.2-1.5-3.2-3.2 0-1.8 1.4-3.2 3.2-3.2 1.7 0 3.2 1.4 3.2 3.2z"></path><path id="&lt;Path&gt;" class="s18" d="m852.3 731.4c0 1.7-1.5 3.2-3.2 3.2-1.8 0-3.2-1.5-3.2-3.2 0-1.8 1.4-3.2 3.2-3.2 1.7 0 3.2 1.4 3.2 3.2z"></path><path id="&lt;Path&gt;" class="s18" d="m812.3 763.7c0 1.8-1.5 3.2-3.2 3.2-1.8 0-3.2-1.4-3.2-3.2 0-1.7 1.4-3.1 3.2-3.1 1.7 0 3.2 1.4 3.2 3.1z"></path><path id="&lt;Path&gt;" class="s14" d="m832.3 763.7c0 1.8-1.5 3.2-3.2 3.2-1.8 0-3.2-1.4-3.2-3.2 0-1.7 1.4-3.1 3.2-3.1 1.7 0 3.2 1.4 3.2 3.1z"></path><path id="&lt;Path&gt;" class="s14" d="m852.3 763.7c0 1.8-1.5 3.2-3.2 3.2-1.8 0-3.2-1.4-3.2-3.2 0-1.7 1.4-3.1 3.2-3.1 1.7 0 3.2 1.4 3.2 3.1z"></path><path id="&lt;Path&gt;" class="s14" d="m812.3 796.1c0 1.7-1.5 3.2-3.2 3.2-1.8 0-3.2-1.5-3.2-3.2 0-1.8 1.4-3.2 3.2-3.2 1.7 0 3.2 1.4 3.2 3.2z"></path><path id="&lt;Path&gt;" class="s18" d="m832.3 796.1c0 1.7-1.5 3.2-3.2 3.2-1.8 0-3.2-1.5-3.2-3.2 0-1.8 1.4-3.2 3.2-3.2 1.7 0 3.2 1.4 3.2 3.2z"></path><path id="&lt;Path&gt;" class="s14" d="m852.3 796.1c0 1.7-1.5 3.2-3.2 3.2-1.8 0-3.2-1.5-3.2-3.2 0-1.8 1.4-3.2 3.2-3.2 1.7 0 3.2 1.4 3.2 3.2z"></path><path id="&lt;Path&gt;" class="s19" d="m789.3 819.7h-69.3v-208.9h69.3z"></path></g></g><g id="Screens"><g id="&lt;Group&gt;"><g id="&lt;Group&gt;"><path id="&lt;Path&gt;" class="s12" d="m920.3 537.3h-202.4c-5.5 0-9.9-4.4-9.9-9.8v-167.1c0-5.5 4.4-9.9 9.9-9.9h202.4c5.5 0 9.9 4.4 9.9 9.9v167.1c0 5.4-4.4 9.8-9.9 9.8z"></path><path id="&lt;Path&gt;" class="s8" d="m920.3 537.3h-202.4c-5.5 0-9.9-4.4-9.9-9.8v-167.1c0-5.5 4.4-9.9 9.9-9.9h202.4c5.5 0 9.9 4.4 9.9 9.9v167.1c0 5.4-4.4 9.8-9.9 9.8z"></path><path id="&lt;Path&gt;" class="s12" d="m930.2 383.1h-222.2v-23.3c0-5.1 4.2-9.3 9.3-9.3h203.8c5 0 9.1 4.1 9.1 9.1z"></path></g><g id="&lt;Group&gt;"><path id="&lt;Path&gt;" class="s8" d="m917.6 369.2c0 3.9-3.2 7.1-7.1 7.1-3.9 0-7.1-3.2-7.1-7.1 0-3.9 3.2-7.1 7.1-7.1 3.9 0 7.1 3.2 7.1 7.1z"></path><path id="&lt;Path&gt;" class="s8" d="m897.4 369.2c0 3.9-3.2 7.1-7.1 7.1-3.9 0-7.1-3.2-7.1-7.1 0-3.9 3.2-7.1 7.1-7.1 3.9 0 7.1 3.2 7.1 7.1z"></path><path id="&lt;Path&gt;" class="s8" d="m877.2 369.2c0 3.9-3.2 7.1-7.1 7.1-3.9 0-7.1-3.2-7.1-7.1 0-3.9 3.2-7.1 7.1-7.1 3.9 0 7.1 3.2 7.1 7.1z"></path></g><path id="&lt;Path&gt;" class="s4" d="m872 417h-114v-6.7h114z"></path><path id="&lt;Path&gt;" class="s20" d="m841.3 431.3h-81.5v-6.6h81.5z"></path><path id="&lt;Path&gt;" class="s12" d="m902.8 417h-22.5v-6.7h22.5z"></path><path id="&lt;Path&gt;" class="s12" d="m750.1 417h-22.4v-6.7h22.4z"></path><path id="&lt;Path&gt;" class="s12" d="m872 447.2h-114v-6.6h114z"></path><path id="&lt;Path&gt;" class="s4" d="m902.8 447.2h-22.5v-6.6h22.5z"></path><path id="&lt;Path&gt;" class="s12" d="m750.1 447.2h-22.4v-6.6h22.4z"></path><path id="&lt;Path&gt;" class="s12" d="m872 510.4h-114v-6.7h114z"></path><path id="&lt;Path&gt;" class="s4" d="m902.8 510.4h-22.5v-6.7h22.5z"></path><path id="&lt;Path&gt;" class="s12" d="m872 463.2h-114v-6.6h114z"></path><path id="&lt;Path&gt;" class="s20" d="m902.8 463.2h-22.5v-6.6h22.5z"></path><path id="&lt;Path&gt;" class="s20" d="m750.1 463.2h-22.4v-6.6h22.4z"></path><path id="&lt;Path&gt;" class="s12" d="m904.4 431.6h-54.2v-6.7h54.2z"></path><path id="&lt;Path&gt;" class="s4" d="m839.5 477.1h-81.5v-6.6h81.5z"></path><path id="&lt;Path&gt;" class="s12" d="m902.6 477.4h-54.1v-6.6h54.1z"></path><path id="&lt;Path&gt;" class="s20" d="m798.8 491.5h-40.8v-6.6h40.8z"></path></g><g id="&lt;Group&gt;"><g id="&lt;Group&gt;"><path id="&lt;Path&gt;" class="s12" d="m317.7 346.1h-202.4c-5.5 0-9.9-4.4-9.9-9.9v-167c0-5.5 4.4-9.9 9.9-9.9h202.4c5.4 0 9.8 4.4 9.8 9.9v167c0 5.5-4.4 9.9-9.8 9.9z"></path><path id="&lt;Path&gt;" class="s8" d="m317.7 346.1h-202.4c-5.5 0-9.9-4.4-9.9-9.9v-167c0-5.5 4.4-9.9 9.9-9.9h202.4c5.4 0 9.8 4.4 9.8 9.9v167c0 5.5-4.4 9.9-9.8 9.9z"></path><path id="&lt;Path&gt;" class="s12" d="m327.5 191.9h-222.1v-23.3c0-5.1 4.1-9.3 9.2-9.3h203.9c5 0 9 4.1 9 9.1z"></path></g><g id="&lt;Group&gt;"><path id="&lt;Path&gt;" class="s8" d="m315 178c0 3.9-3.2 7.1-7.1 7.1-3.9 0-7.1-3.2-7.1-7.1 0-4 3.2-7.1 7.1-7.1 3.9 0 7.1 3.1 7.1 7.1z"></path><path id="&lt;Path&gt;" class="s8" d="m294.8 178c0 3.9-3.2 7.1-7.1 7.1-3.9 0-7.1-3.2-7.1-7.1 0-4 3.2-7.1 7.1-7.1 3.9 0 7.1 3.1 7.1 7.1z"></path><path id="&lt;Path&gt;" class="s8" d="m274.6 178c0 3.9-3.2 7.1-7.1 7.1-4 0-7.1-3.2-7.1-7.1 0-4 3.1-7.1 7.1-7.1 3.9 0 7.1 3.1 7.1 7.1z"></path></g><path id="&lt;Path&gt;" class="s11" d="m286.5 263.4c-7.4-9.8-22.5-14.7-32.5-7.5-2.5-14.2-12.8-26.7-26.1-32-13.4-5.2-29.5-3-40.9 5.7-11.4 8.7-17.8 23.6-16.3 37.9-9.8-2.2-20.4 0.1-26.7 10.2-8.2 13 2.4 25.9 2.4 25.9l57 0.3v-20.9h-7.3c-1.3 0-2-1.5-1.1-2.5l8.4-8.7 9.7-10.2c0.6-0.6 1.6-0.6 2.2 0l9.7 10.2 8.4 8.7c0.8 1 0.2 2.5-1.1 2.5h-7.3v21l60.7 0.4c8.6-10 8.2-31.1 0.8-41z"></path></g></g><g id="Character"><g id="&lt;Group&gt;"><g id="&lt;Group&gt;"><path id="&lt;Path&gt;" class="s7" d="m201 825.2c0 0 174.3-40.8 182.6-4.5 11.8 51.8-113.9 86.6-180.9 84.5-66.9-2.1-1.7-80-1.7-80z"></path><path id="&lt;Path&gt;" class="s21" d="m201 825.2c0 0 174.3-40.8 182.6-4.5 11.8 51.8-113.9 86.6-180.9 84.5-66.9-2.1-1.7-80-1.7-80z"></path><path id="&lt;Path&gt;" class="s22" d="m326.4 831.9l-81.8 52 10.9 15.5c0 0-5.8 8.5-16.7-17.7l50.6-33.4c0 0-15.8-1.6-15.4-4.1 0.6-4.1 35.4-11.8 51.3-15.3 0.8-0.3 1.7 0.1 2 1 0.3 0.8-0.1 1.7-0.9 2z"></path><path id="&lt;Path&gt;" class="s22" d="m241.6 878l14.2 23c-17.5 3.1-35.3 4.5-53.1 4.2-5.8 0-11.6-1.1-17.1-3.1l-5-9.1 10.8-21.6z"></path><g id="&lt;Group&gt;"><g id="&lt;Group&gt;"><g id="&lt;Group&gt;"><g id="&lt;Group&gt;"><g id="&lt;Group&gt;"><path id="&lt;Path&gt;" class="s23" d="m268.7 868.9l-36.4 23.1 6.5 17.6 42.7-19.2z"></path></g></g></g></g><g id="&lt;Group&gt;"><g id="&lt;Group&gt;"><g id="&lt;Group&gt;"><g id="&lt;Group&gt;"><g id="&lt;Group&gt;"><g id="&lt;Group&gt;"><g id="&lt;Group&gt;"><g id="&lt;Group&gt;"><g id="&lt;Group&gt;"><g id="&lt;Group&gt;"><g id="&lt;Group&gt;"><g id="&lt;Group&gt;"><path id="&lt;Path&gt;" class="s7" d="m212.3 897.9l3.5 12.7c0 0 2.7 0.6 3.6 3.2 0.4 1.5-0.7 5.7-0.7 5.7l9.6 35c0 0 2.4-0.7 3.3-1.3q1.7-1.3 2.8-2.6c2.6-2.9 2.9-7.3 3-10.5 0.1-5.3 3.2-21 3.2-21 0 0 1.2-4.1 5.5-7.7 2.4-2 3.5-4.6 3.3-6.1-0.4-3.2-2.7-4.4-5.7-4.1l-3.5 0.4c-2.5-1.8-3.3-4.9-1.7-8 0 0 2.1-7.6-1.1-6.3-1.9 0.7-9.9 4.3-16.3 7-1.5 0.6-2.9 1.2-4.2 1.7-2.7 1.1-4.6 1.9-4.6 1.9z"></path></g></g></g></g></g></g><g id="&lt;Group&gt;"><g id="&lt;Group&gt;"><g id="&lt;Group&gt;"><g id="&lt;Group&gt;"><path id="&lt;Path&gt;" class="s12" d="m239.3 927.4c0.1-0.2 0-0.4-0.1-0.6-0.8-0.7-1.7-1.2-2.8-1.4-0.5-0.1-0.8 0.8-0.2 0.9q1.3 0.3 2.4 1.2c0.2 0.2 0.5 0.2 0.7-0.1z"></path></g></g></g></g><g id="&lt;Group&gt;"><g id="&lt;Group&gt;"><g id="&lt;Group&gt;"><g id="&lt;Group&gt;"><path id="&lt;Path&gt;" class="s12" d="m240 924.3c0.1-0.2 0-0.4-0.1-0.6-0.8-0.7-1.7-1.2-2.7-1.4-0.6-0.1-0.9 0.8-0.3 0.9 0.9 0.2 1.8 0.6 2.4 1.2 0.2 0.3 0.6 0.2 0.7-0.1z"></path></g></g></g></g><g id="&lt;Group&gt;"><g id="&lt;Group&gt;"><g id="&lt;Group&gt;"><g id="&lt;Group&gt;"><path id="&lt;Path&gt;" class="s12" d="m240.6 921.2c0.1-0.2 0-0.5-0.1-0.6-0.8-0.7-1.7-1.2-2.8-1.4-0.5-0.1-0.8 0.7-0.2 0.9q1.3 0.3 2.4 1.2c0.2 0.2 0.6 0.1 0.7-0.1z"></path></g></g></g></g></g></g></g></g></g></g><g id="&lt;Group&gt;"><path id="&lt;Path&gt;" class="s18" d="m216.9 896c-2.7 1.1-4.6 1.9-4.6 1.9l3.5 12.7c0 0 2.7 0.6 3.6 3.2 0.4 1.5-0.7 5.7-0.7 5.7l9.6 35c0 0 2.4-0.7 3.3-1.3q0.8-0.6 1.4-1.2l-15.4-56.3q-0.3 0.1-0.7 0.3z"></path></g><path id="&lt;Path&gt;" class="s24" d="m240.1 921c1.2-0.5 2.4-0.9 3.6-1.1 1.3-0.3 2.6-0.3 3.8 0.2 0.5 0.2 1.1 0.5 1.2 1.1 0.1 0.6-0.3 1.2-0.8 1.6-1 0.6-2.2 0.8-3.4 0.6-1.2-0.2-3.4-1.7-4.4-2.4z"></path><path id="&lt;Path&gt;" class="s24" d="m240.1 920.8c0.9-0.8 1.9-1.6 2.8-2.5 0.8-1 1.5-2.1 1.7-3.3 0.2-0.6 0.1-1.3-0.3-1.7-0.4-0.4-1.2-0.3-1.7-0.1-1.1 0.5-1.9 1.5-2.3 2.6-0.5 1.1-0.3 3.8-0.2 5z"></path></g></g><path id="&lt;Path&gt;" class="s23" d="m273 714.4c0 0 6.4 56.6 8.1 59.6 5.7 10.3 43.8 27.9 43.8 27.9l19.5-4 13.9 11.6-9.2 7.2-10.8-4.1c-5.8 1.1-11.8 1.6-17.8 1.6-10 0-58.4-12.3-66.5-25.8-8-13.5-11.7-75.9-11.7-75.9z"></path><g id="&lt;Group&gt;"><path id="&lt;Path&gt;" class="s12" d="m241.4 736.6c0 0-14.9-49.7 3.7-63.5 18.6-13.9 33.4 54.5 33.4 54.5z"></path><path id="&lt;Path&gt;" class="s17" d="m241.4 736.6c0 0-14.9-49.7 3.7-63.5 18.6-13.9 33.4 54.5 33.4 54.5z"></path><path id="&lt;Path&gt;" class="s12" d="m253.2 827.6l-0.1-65.9-1.9-90.8-38.5-8-33.9-1.5-38.6 17.7-0.9 22.2c0 0 4.4 101.7 4.2 104.8-0.3 3.7-11.3 27.3-11.3 27.3 48.8 11.1 121.8-2.4 121-5.8z"></path><path id="&lt;Path&gt;" class="s17" d="m253.2 827.6l-0.1-65.9-1.9-90.8-38.5-8-33.9-1.5-38.6 17.7-0.9 22.2c0 0 4.4 101.7 4.2 104.8-0.3 3.7-11.3 27.3-11.3 27.3 48.8 11.1 121.8-2.4 121-5.8z"></path><path id="&lt;Path&gt;" class="s12" d="m198 676.1c0 0 9.5 8.4 14.3-2.5l2.5 2c0 0-0.2 8.1-4.8 10.8 1.1 4.5 20.3 69.9 23.7 102.8l-5.2 13.4-14-11c0 0-6.7-56.6-9-104.6-5.6-1.9-10-6.1-12.1-11.4z"></path><path id="&lt;Path&gt;" class="s21" d="m210.2 677.2l8.2 6.3 1.3-19.1-2.6-0.6-2.1 12.9-3.9-2.2z"></path><path id="&lt;Path&gt;" class="s21" d="m170.7 665.1c-0.1 0.1 19.3 23.8 19.3 23.8l6.6-5 4.5-3.9 1.2-1.4-25.7-17.9c0 0-3.5 3.5-3.8 3.5-0.4 0-2.1 0.9-2.1 0.9z"></path><path id="&lt;Path&gt;" class="s12" d="m172.1 664.7l9.4-8.4 25.7 24.1-6.7-2.3-9.8 7.5z"></path><path id="&lt;Path&gt;" class="s12" d="m207.2 680.4c-0.5-1.1 2.1-22.9 2.1-22.9l9.1 6.2c-0.5-0.1-0.8 18.1-1.1 18.1-0.3 0-6-6.2-6-6.2z"></path><path id="&lt;Path&gt;" class="s7" d=""></path><path id="&lt;Path&gt;" class="s21" d="m252.5 733.9l-2-42.5 9.5 40.7z"></path><path id="&lt;Path&gt;" class="s21" d="m170 740.1c1.2-0.2 7.3-2.2 7.3-2.2l-13.5-37.6 18.5 41.6-11.1 4.4z"></path><path id="&lt;Path&gt;" class="s17" d="m172.1 664.7l9.4-8.4 25.7 24.1-6.7-2.3-9.8 7.5z"></path><path id="&lt;Path&gt;" class="s17" d="m207.2 680.4c-0.5-1.1 2.1-22.9 2.1-22.9l9.1 6.2c-0.5-0.1-0.8 18.1-1.1 18.1-0.3 0-6-6.2-6-6.2z"></path><path id="&lt;Path&gt;" class="s17" d="m221.8 715.6l4.3 21.2 12.6 4.6 8.5-7.4-1.5-20.1z"></path><path id="&lt;Path&gt;" class="s12" d="m208.8 678.6l-4 1c0 0-0.2 0.2-0.1 0.1 0.1-0.1-2.2 7.5-2.2 7.5 0.7 0.6 2.8 4.3 3.1 4.2 0.2 0 5.5-0.5 5.5-0.5l1.9-5.6c0 0-4.3-6.8-4.2-6.7z"></path><path id="&lt;Path&gt;" class="s21" d="m208.8 678.6l-4 1c0 0-0.2 0.2-0.1 0.1 0.1-0.1-2.2 7.5-2.2 7.5 0.7 0.6 2.8 4.3 3.1 4.2 0.2 0 5.5-0.5 5.5-0.5l1.9-5.6c0 0-4.3-6.8-4.2-6.7z"></path></g><g id="&lt;Group&gt;"><path id="&lt;Path&gt;" class="s23" d="m164.8 709c0 0 9.5 62.9 14.9 68.7 9.2 10 54.9 36.3 54.9 36.3l22.9-8c1.6-0.5 3.3-0.2 4.6 0.8l15.6 11.9-1.5 1.3c-0.6 0.5-1.5 0.6-2.3 0.2l-2.4-1.2 2.7 2.7-0.9 0.7c-0.8 0.7-2 1-3.1 0.7l-7-1.9 6.5 4.3c-1.5 1.2-3.5 1.6-5.3 1.1l-10.2-2.9c-7 1.6-14.1 2.6-21.2 3-12 0.8-68.7-19-79.3-33.5-10.6-14.6-21.5-74.8-21.5-74.8z"></path><g id="&lt;Group&gt;"><path id="&lt;Path&gt;" class="s12" d="m134.6 750.8c0 0-14.1-57 4.5-70.8 18.6-13.8 37 58.3 37 58.3z"></path><path id="&lt;Path&gt;" class="s17" d="m134.6 750.8c0 0-14.1-57 4.5-70.8 18.6-13.8 37 58.3 37 58.3z"></path></g></g><g id="&lt;Group&gt;"><g id="&lt;Group&gt;"><path id="&lt;Path&gt;" class="s7" d="m256.4 603.4c2.3-0.3 4.3-2.4 4.4-4.8 0.1-2.3-1.7-4.6-4-5.1l-11-1.1q0.7 10.7 1.5 21.3c2.2 0.5 4.5 0.6 6.5-0.1 2.1-0.7 4-2.3 4.6-4.4 0.6-2.1-0.2-4.7-2-5.8z"></path></g><g id="&lt;Group&gt;"><path id="&lt;Path&gt;" class="s23" d="m214.2 644.2l-23.7-29.8q0 0 0 0.1c0 2.8-0.1 6-0.3 9.5 0 0-2.6-1.3-2.6-1.2-1 15.5-7.1 41.9-6.8 44.2l24.9 12.4 4.5-4.6 0.9-10.1c-2.5-6.3-0.2-13.6 3.1-20.5z"></path><path id="&lt;Path&gt;" class="s21" d="m210.7 654.3l-15-11.9c-0.4 6 2.8 15.5 14.8 20.4-0.7-3.6-0.5-6.2 0.2-8.5z"></path></g><g id="&lt;Group&gt;"><path id="&lt;Path&gt;" class="s23" d="m195.6 599.6c-4.9 20.1-6.8 29.7 0.1 42.8 10.3 19.7 35.5 19.9 46.3 1.6 9.7-16.4 16.1-46.4-0.8-60.1-16.7-13.4-40.7-4.4-45.6 15.7z"></path><path id="&lt;Path&gt;" class="s7" d="m199.8 572.4c6.1-10 22-11.7 27.9-3.8 0.8 1.2-8.7 1.5-7.6 1.4l-5.5 15.9c-1.1-0.7-3.9 0-6.2 3.2 0 0-3.5 21.8-14.8 27.9-11.1-15.3-9.8-44.6 6.2-44.6z"></path><path id="&lt;Path&gt;" class="s23" d="m182.7 613.6c0 5.6 2.6 10.6 5.9 13.7 5 4.8 10.7 1.1 12.1-5.3 1.2-5.7 0.1-15.1-6.2-17.4-6.2-2.3-11.8 2.6-11.8 9z"></path><path id="&lt;Path&gt;" class="s7" d="m222.7 616.4c-0.6 2 0 4 1.3 4.4 1.3 0.4 2.9-0.9 3.5-2.9 0.7-2.1 0.1-4-1.2-4.4-1.4-0.4-2.9 0.9-3.6 2.9z"></path><path id="&lt;Path&gt;" class="s7" d="m242.5 622.8c-0.6 2.1-0.1 4 1.3 4.4 1.3 0.4 2.9-0.9 3.5-2.9 0.6-2 0.1-4-1.3-4.4-1.3-0.4-2.9 0.9-3.5 2.9z"></path><path id="&lt;Path&gt;" class="s25" d="m235.5 617.5c0 0 2.6 9.1 3.7 14.6 0.3 1.3-0.7 2.6-2 2.6-2.9 0.1-5.7-1.5-5.7-1.5z"></path><path id="&lt;Path&gt;" class="s7" d="m220.6 604.3c0.3 0.2 0.7 0.3 1 0.2 4.2-1.6 7.1 0.5 7.2 0.5 0.4 0.4 1 0.3 1.4-0.2 0.3-0.4 0.2-1-0.3-1.3-0.1-0.2-3.8-2.8-9-0.8-0.5 0.1-0.7 0.7-0.6 1.2q0.1 0.3 0.3 0.4z"></path><path id="&lt;Path&gt;" class="s7" d="m253 613.7q0.3-0.1 0.5-0.3c0.4-0.3 0.5-1 0.1-1.4-3.6-4-8.1-3.4-8.3-3.4-0.5 0.1-0.9 0.6-0.8 1.2 0 0.5 0.5 0.9 1.1 0.8 0.2 0 3.6-0.5 6.5 2.8 0.2 0.2 0.6 0.3 0.9 0.3z"></path></g><g id="&lt;Group&gt;"><path id="&lt;Path&gt;" class="s7" d="m221.1 637.3q1 0.8 2.2 1.5c0.2 0.1 0.6 0 0.7-0.2 0.1-0.3 0-0.6-0.2-0.7-4-2.2-6.8-6.2-7.4-10.7-0.1-0.3-0.3-0.5-0.6-0.5-0.2 0-0.5 0.2-0.5 0.5q0 0 0 0.1c0.5 4 2.6 7.6 5.8 10z"></path></g><g id="&lt;Group&gt;"><path id="&lt;Path&gt;" class="s7" d="m266.3 588.4c-1.4-4-6.1-5.7-10.3-6 2.6 0 4.7-2.7 4.7-5.4 0-2.6-1.6-5-3.7-6.7-3.7-2.9-9-3.7-13.4-1.9 0.8-0.4 1.1-1.5 0.8-2.4-0.2-0.9-0.9-1.6-1.7-2.1-4.4-3.4-11.3-3.1-15.5 0.8-1.4-4.9-7-8.1-11.9-6.8-4.8 1.2-13.8 2.2-15.2 14.4-4-2.9-10.3-2.2-13.5 1.6-3.5 4.2-2.6 11.3 1.8 14.4-2.2-0.9-4.9 0.5-5.8 2.7-0.9 2.2-0.2 4.9 1.3 6.7 1.6 1.8 3.8 2.9 6.1 3.5 2.1 0.6 4.4 0.9 6.6 0.2 2.1-0.6 4-2.3 4.4-4.5 0.4 2.3 2.8 4 5.1 3.7 2.3-0.2 4.3-2.2 4.6-4.5 0.4-2.3-0.7-4.7-2.5-6.1 2.6 2.5 7.7 1.5 9.2-1.8 1.9 3.7 4.7 7.2 8.6 8.9 3.8 1.7 9 1 11.4-2.4 1.3 1.4 2.6 2.9 4.2 4 1.6 1 3.7 1.5 5.5 1 1.9-0.6 3.3-2.6 2.9-4.5 3.1 2.6 7.4 3.9 11.1 2.6 3.8-1.3 6.5-5.6 5.2-9.4z"></path></g></g><g id="&lt;Group&gt;"><g id="&lt;Group&gt;"><path id="&lt;Path&gt;" class="s7" d="m286.9 823.3h-35.1-37.3c0.1 2.8 3.1 5 6.9 5h37.2 21.3q0.1 0 0.1 0h59.2c3.8-0.1 6.8-2.3 6.8-5z"></path></g><path id="&lt;Path&gt;" class="s7" d="m340.3 828h-66.1c-1.1 0-2-0.8-2-1.7q0-0.2 0.1-0.5l29.4-67.4c0.7-1.9 2.9-3.2 5.5-3.2h66.1c1.1 0 2 0.7 2 1.6q0 0.3-0.1 0.6l-29.4 67.3c-0.8 2-3 3.3-5.5 3.3z"></path><path id="&lt;Path&gt;" class="s9" d="m373.3 755.2h-66.1c-2.6 0-4.8 1.3-5.5 3.2l-28.3 64.9h-21.6-37.3c0.1 2.8 3.1 5 6.9 5h37.2 21.3q0.1 0 0.1 0h59.2c1.2 0 2.3-0.3 3.3-0.7 1.5-0.5 2.7-1.5 3.3-2.9l29.4-67.3q0.1-0.3 0.1-0.6c0-0.9-0.9-1.6-2-1.6z"></path><path id="&lt;Path&gt;" class="s11" d="m333.6 791.1c-1.5 3.2-4.4 5.4-6.5 5-2.2-0.5-2.8-3.4-1.4-6.7 1.4-3.2 4.3-5.4 6.5-4.9 2.2 0.4 2.8 3.2 1.4 6.6z"></path><g id="&lt;Group&gt;" style="opacity: .3"><path id="&lt;Path&gt;" class="s26" d="m272.2 823.3h1.2"></path><path id="&lt;Path&gt;" class="s27" d="m301.7 758.4l-28.3 64.9h3.1l30.7-68.1c-2.6 0-4.8 1.3-5.5 3.2z"></path></g></g><g id="&lt;Group&gt;"><g id="&lt;Group&gt;"><g id="&lt;Group&gt;"><g id="&lt;Group&gt;"><g id="&lt;Group&gt;"><g id="&lt;Group&gt;"><path id="&lt;Path&gt;" class="s23" d="m305.1 898l42.6 6.8 6.8-17.5-44.7-14z"></path></g></g></g></g><g id="&lt;Group&gt;"><g id="&lt;Group&gt;"><g id="&lt;Group&gt;"><g id="&lt;Group&gt;"><g id="&lt;Group&gt;"><g id="&lt;Group&gt;"><g id="&lt;Group&gt;"><g id="&lt;Group&gt;"><g id="&lt;Group&gt;"><g id="&lt;Group&gt;"><g id="&lt;Group&gt;"><g id="&lt;Group&gt;"><path id="&lt;Path&gt;" class="s7" d="m366.6 913.7l5.7-11.9c0 0-1.6-2.2-0.5-4.7 0.7-1.5 4.3-3.8 4.3-3.8l16-32.6c0 0-2.2-1.1-3.4-1.2q-2.1-0.2-3.7 0c-3.9 0.5-7 3.6-9.2 5.9-3.7 3.9-16.4 13.6-16.4 13.6 0 0-3.6 2.3-9.2 2.1-3.2 0-5.7 1.1-6.6 2.4-1.7 2.7-0.8 5.2 1.7 6.9l2.9 2c0.6 3-0.9 5.8-4.1 7.1 0 0-6.6 4.3-3.3 5.5 1.8 0.6 10.2 3.3 16.8 5.6 1.5 0.5 2.9 1 4.2 1.4 2.8 1 4.8 1.7 4.8 1.7z"></path></g></g></g></g></g></g><g id="&lt;Group&gt;"><g id="&lt;Group&gt;"><g id="&lt;Group&gt;"><g id="&lt;Group&gt;"><path id="&lt;Path&gt;" class="s12" d="m365.9 873.7c-0.2 0-0.3 0.3-0.3 0.5 0.1 1 0.5 2 1.1 2.8 0.4 0.5 1.2 0 0.8-0.5-0.6-0.7-0.9-1.6-1-2.5 0-0.3-0.3-0.5-0.6-0.3z"></path></g></g></g></g><g id="&lt;Group&gt;"><g id="&lt;Group&gt;"><g id="&lt;Group&gt;"><g id="&lt;Group&gt;"><path id="&lt;Path&gt;" class="s12" d="m363.3 875.5c-0.2 0.1-0.3 0.3-0.3 0.5 0.1 1 0.5 2 1.1 2.9 0.4 0.4 1.2-0.1 0.8-0.5-0.5-0.8-0.9-1.6-1-2.5 0-0.3-0.3-0.5-0.5-0.4q-0.1 0-0.1 0z"></path></g></g></g></g><g id="&lt;Group&gt;"><g id="&lt;Group&gt;"><g id="&lt;Group&gt;"><g id="&lt;Group&gt;"><path id="&lt;Path&gt;" class="s12" d="m360.8 877.5c-0.2 0.1-0.3 0.3-0.3 0.5 0.1 1 0.5 2 1.1 2.9 0.3 0.4 1.1-0.1 0.8-0.5-0.6-0.8-0.9-1.7-1-2.6 0-0.3-0.3-0.4-0.6-0.3z"></path></g></g></g></g></g></g></g></g></g></g><path id="&lt;Path&gt;" class="s18" d="m371.8 897.1c0.7-1.5 4.3-3.8 4.3-3.8l16-32.6c0 0-2.2-1.1-3.4-1.2q-0.9-0.1-1.8-0.1l-25.8 52.4q0.4 0.1 0.7 0.2c2.8 1 4.8 1.7 4.8 1.7l5.7-11.9c0 0-1.6-2.2-0.5-4.7z"></path><path id="&lt;Path&gt;" class="s24" d="m361 878c-1.1-0.5-2.3-1-3.4-1.6-1.1-0.7-2.1-1.5-2.7-2.7-0.2-0.5-0.4-1.1-0.1-1.6 0.3-0.6 1-0.7 1.6-0.7 1.2 0.2 2.2 0.9 3 1.8 0.7 1 1.4 3.6 1.6 4.8z"></path><path id="&lt;Path&gt;" class="s24" d="m361 878.1c-1.3-0.1-2.6-0.1-3.8 0-1.3 0.2-2.5 0.6-3.5 1.3-0.5 0.4-0.9 0.9-0.9 1.5 0.1 0.6 0.7 1 1.2 1.2 1.2 0.4 2.4 0.2 3.5-0.4 1-0.5 2.7-2.7 3.5-3.6z"></path></g><path id="&lt;Path&gt;" class="s7" d="m145.2 878.6c-9.2-14.6-29.9-54.2 12.2-61.9 42.1-7.8 182.7 59.1 182.7 59.1l-8.9 26.8-130.9-20.6c0 0 17.9 23.9-3.8 22.8-31.6-3.1-39.2-10.7-51.3-26.2z"></path><path id="&lt;Path&gt;" class="s22" d="m203.4 882.7l-35.9-11.3c0 0 30.1 18.4 41.2 20.6z"></path></g></g></g><g id="Speech Bubble"><g id="&lt;Group&gt;"><g id="&lt;Group&gt;"><g id="&lt;Group&gt;"><g id="&lt;Group&gt;"><path id="&lt;Path&gt;" class="s12" d="m70 541.7h73.2c6.6 0 12 5.3 12 12v39.5c0 6.6-5.4 12-12 12h-17.5l-0.1 11.9-13.2-11.9h-42.4c-6.6 0-12-5.4-12-12v-39.5c0-6.7 5.4-12 12-12z"></path></g></g></g><g id="&lt;Group&gt;"><g id="&lt;Group&gt;"><path id="&lt;Compound Path&gt;" class="s11" d="m97.6 567.2l-11.6 5.4 11.6 5.4v4.3l-15.4-7.5v-4.5l15.4-7.5z"></path><path id="&lt;Compound Path&gt;" class="s11" d="m132.7 570.3v4.5l-15.4 7.5v-4.3l11.5-5.4-11.5-5.4v-4.4z"></path></g><g id="&lt;Group&gt;"><path id="&lt;Path&gt;" class="s11" d="m110.1 559.8l-7.5 26h3.8l7.5-26z"></path></g></g><g id="&lt;Group&gt;"><path id="&lt;Path&gt;" class="s12" d="m126.3 539h-37.6c-0.3 0-0.5-0.2-0.5-0.5 0-0.3 0.2-0.5 0.5-0.5h37.6c0.3 0 0.5 0.2 0.5 0.5 0 0.3-0.2 0.5-0.5 0.5z"></path></g><g id="&lt;Group&gt;"><path id="&lt;Path&gt;" class="s12" d="m136.7 539h-6c-0.2 0-0.5-0.2-0.5-0.5 0-0.3 0.3-0.5 0.5-0.5h6c0.3 0 0.5 0.2 0.5 0.5 0 0.3-0.2 0.5-0.5 0.5z"></path></g></g></g></svg>